<svg width="125" height="24" viewBox="0 0 125 24" fill="none" xmlns="http://www.w3.org/2000/svg">
<path d="M9.28 20.31C9.45 20.79 8.92999 21.23 8.48999 20.97L5.34 19.18C4.77 18.85 4.42001 18.06 4.54001 17.42L5.48001 12.75C5.59001 12.2 6.35001 12.15 6.54001 12.67L9.28 20.31Z" fill="#F53838"/>
<path d="M18.66 19.18L15.5 20.98C15.06 21.23 14.54 20.8 14.71 20.32L17.46 12.61C17.65 12.09 18.41 12.14 18.52 12.69L19.47 17.42C19.58 18.06 19.23 18.85 18.66 19.18Z" fill="#F53838"/>
<path d="M17.08 7.32001C17.32 7.62001 17.39 8.02001 17.26 8.38001L12.52 21.63C12.35 22.12 11.66 22.12 11.49 21.63L6.74999 8.39001C6.61999 8.03001 6.68999 7.63001 6.92999 7.33001L10.75 2.63001C11.44 1.80001 12.58 1.80001 13.28 2.63001L17.08 7.32001Z" fill="#F53838"/>
<path d="M36.98 18.5C36.848 18.5 36.746 18.464 36.674 18.392C36.602 18.308 36.566 18.206 36.566 18.086V6.314C36.566 6.194 36.602 6.098 36.674 6.026C36.746 5.942 36.848 5.9 36.98 5.9H37.934C38.054 5.9 38.15 5.942 38.222 6.026C38.294 6.098 38.33 6.194 38.33 6.314V16.934H44.324C44.456 16.934 44.558 16.976 44.63 17.06C44.702 17.132 44.738 17.234 44.738 17.366V18.086C44.738 18.206 44.702 18.308 44.63 18.392C44.558 18.464 44.456 18.5 44.324 18.5H36.98ZM49.0846 18.68C48.4846 18.68 47.9386 18.56 47.4466 18.32C46.9546 18.08 46.5586 17.756 46.2586 17.348C45.9586 16.94 45.8086 16.478 45.8086 15.962C45.8086 15.134 46.1446 14.474 46.8166 13.982C47.4886 13.49 48.3646 13.166 49.4446 13.01L52.1266 12.632V12.11C52.1266 11.534 51.9586 11.084 51.6226 10.76C51.2986 10.436 50.7646 10.274 50.0206 10.274C49.4806 10.274 49.0426 10.382 48.7066 10.598C48.3826 10.814 48.1546 11.09 48.0226 11.426C47.9506 11.606 47.8246 11.696 47.6446 11.696H46.8346C46.7026 11.696 46.6006 11.66 46.5286 11.588C46.4686 11.504 46.4386 11.408 46.4386 11.3C46.4386 11.12 46.5046 10.898 46.6366 10.634C46.7806 10.37 46.9966 10.112 47.2846 9.86C47.5726 9.608 47.9386 9.398 48.3826 9.23C48.8386 9.05 49.3906 8.96 50.0386 8.96C50.7586 8.96 51.3646 9.056 51.8566 9.248C52.3486 9.428 52.7326 9.674 53.0086 9.986C53.2966 10.298 53.5006 10.652 53.6206 11.048C53.7526 11.444 53.8186 11.846 53.8186 12.254V18.086C53.8186 18.206 53.7766 18.308 53.6926 18.392C53.6206 18.464 53.5246 18.5 53.4046 18.5H52.5766C52.4446 18.5 52.3426 18.464 52.2706 18.392C52.1986 18.308 52.1626 18.206 52.1626 18.086V17.312C52.0066 17.528 51.7966 17.744 51.5326 17.96C51.2686 18.164 50.9386 18.338 50.5426 18.482C50.1466 18.614 49.6606 18.68 49.0846 18.68ZM49.4626 17.33C49.9546 17.33 50.4046 17.228 50.8126 17.024C51.2206 16.808 51.5386 16.478 51.7666 16.034C52.0066 15.59 52.1266 15.032 52.1266 14.36V13.856L50.0386 14.162C49.1866 14.282 48.5446 14.486 48.1126 14.774C47.6806 15.05 47.4646 15.404 47.4646 15.836C47.4646 16.172 47.5606 16.454 47.7526 16.682C47.9566 16.898 48.2086 17.06 48.5086 17.168C48.8206 17.276 49.1386 17.33 49.4626 17.33ZM59.6462 18.68C58.9742 18.68 58.3982 18.596 57.9182 18.428C57.4382 18.26 57.0482 18.056 56.7482 17.816C56.4482 17.576 56.2202 17.336 56.0642 17.096C55.9202 16.856 55.8422 16.664 55.8302 16.52C55.8182 16.388 55.8602 16.286 55.9562 16.214C56.0522 16.142 56.1482 16.106 56.2442 16.106H57.0362C57.1082 16.106 57.1622 16.118 57.1982 16.142C57.2462 16.154 57.3062 16.202 57.3782 16.286C57.5342 16.454 57.7082 16.622 57.9002 16.79C58.0922 16.958 58.3262 17.096 58.6022 17.204C58.8902 17.312 59.2442 17.366 59.6642 17.366C60.2762 17.366 60.7802 17.252 61.1762 17.024C61.5722 16.784 61.7702 16.436 61.7702 15.98C61.7702 15.68 61.6862 15.44 61.5182 15.26C61.3622 15.08 61.0742 14.918 60.6542 14.774C60.2462 14.63 59.6822 14.48 58.9622 14.324C58.2422 14.156 57.6722 13.952 57.2522 13.712C56.8322 13.46 56.5322 13.166 56.3522 12.83C56.1722 12.482 56.0822 12.092 56.0822 11.66C56.0822 11.216 56.2142 10.79 56.4782 10.382C56.7422 9.962 57.1262 9.62 57.6302 9.356C58.1462 9.092 58.7882 8.96 59.5562 8.96C60.1802 8.96 60.7142 9.038 61.1582 9.194C61.6022 9.35 61.9682 9.548 62.2562 9.788C62.5442 10.016 62.7602 10.244 62.9042 10.472C63.0482 10.7 63.1262 10.892 63.1382 11.048C63.1502 11.168 63.1142 11.27 63.0302 11.354C62.9462 11.426 62.8502 11.462 62.7422 11.462H61.9862C61.9022 11.462 61.8302 11.444 61.7702 11.408C61.7222 11.372 61.6742 11.33 61.6262 11.282C61.5062 11.126 61.3622 10.97 61.1942 10.814C61.0382 10.658 60.8282 10.532 60.5642 10.436C60.3122 10.328 59.9762 10.274 59.5562 10.274C58.9562 10.274 58.5062 10.4 58.2062 10.652C57.9062 10.904 57.7562 11.222 57.7562 11.606C57.7562 11.834 57.8222 12.038 57.9542 12.218C58.0862 12.398 58.3382 12.56 58.7102 12.704C59.0822 12.848 59.6342 13.004 60.3662 13.172C61.1582 13.328 61.7822 13.538 62.2382 13.802C62.6942 14.066 63.0182 14.372 63.2102 14.72C63.4022 15.068 63.4982 15.47 63.4982 15.926C63.4982 16.43 63.3482 16.892 63.0482 17.312C62.7602 17.732 62.3282 18.068 61.7522 18.32C61.1882 18.56 60.4862 18.68 59.6462 18.68ZM66.014 18.5C65.894 18.5 65.792 18.464 65.708 18.392C65.636 18.308 65.6 18.206 65.6 18.086V6.134C65.6 6.014 65.636 5.918 65.708 5.846C65.792 5.762 65.894 5.72 66.014 5.72H66.86C66.992 5.72 67.094 5.762 67.166 5.846C67.238 5.918 67.274 6.014 67.274 6.134V18.086C67.274 18.206 67.238 18.308 67.166 18.392C67.094 18.464 66.992 18.5 66.86 18.5H66.014ZM73.685 18.68C72.449 18.68 71.465 18.302 70.733 17.546C70.001 16.778 69.599 15.734 69.527 14.414C69.515 14.258 69.509 14.06 69.509 13.82C69.509 13.568 69.515 13.364 69.527 13.208C69.575 12.356 69.773 11.612 70.121 10.976C70.469 10.328 70.943 9.83 71.543 9.482C72.155 9.134 72.869 8.96 73.685 8.96C74.597 8.96 75.359 9.152 75.971 9.536C76.595 9.92 77.069 10.466 77.393 11.174C77.717 11.882 77.879 12.71 77.879 13.658V13.964C77.879 14.096 77.837 14.198 77.753 14.27C77.681 14.342 77.585 14.378 77.465 14.378H71.237C71.237 14.39 71.237 14.414 71.237 14.45C71.237 14.486 71.237 14.516 71.237 14.54C71.261 15.032 71.369 15.494 71.561 15.926C71.753 16.346 72.029 16.688 72.389 16.952C72.749 17.216 73.181 17.348 73.685 17.348C74.117 17.348 74.477 17.282 74.765 17.15C75.053 17.018 75.287 16.874 75.467 16.718C75.647 16.55 75.767 16.424 75.827 16.34C75.935 16.184 76.019 16.094 76.079 16.07C76.139 16.034 76.235 16.016 76.367 16.016H77.231C77.351 16.016 77.447 16.052 77.519 16.124C77.603 16.184 77.639 16.274 77.627 16.394C77.615 16.574 77.519 16.796 77.339 17.06C77.159 17.312 76.901 17.564 76.565 17.816C76.229 18.068 75.821 18.278 75.341 18.446C74.861 18.602 74.309 18.68 73.685 18.68ZM71.237 13.136H76.169V13.082C76.169 12.542 76.067 12.062 75.863 11.642C75.671 11.222 75.389 10.892 75.017 10.652C74.645 10.4 74.201 10.274 73.685 10.274C73.169 10.274 72.725 10.4 72.353 10.652C71.993 10.892 71.717 11.222 71.525 11.642C71.333 12.062 71.237 12.542 71.237 13.082V13.136ZM83.2712 18.68C82.5992 18.68 82.0232 18.596 81.5432 18.428C81.0632 18.26 80.6732 18.056 80.3732 17.816C80.0732 17.576 79.8452 17.336 79.6892 17.096C79.5452 16.856 79.4672 16.664 79.4552 16.52C79.4432 16.388 79.4852 16.286 79.5812 16.214C79.6772 16.142 79.7732 16.106 79.8692 16.106H80.6612C80.7332 16.106 80.7872 16.118 80.8232 16.142C80.8712 16.154 80.9312 16.202 81.0032 16.286C81.1592 16.454 81.3332 16.622 81.5252 16.79C81.7172 16.958 81.9512 17.096 82.2272 17.204C82.5152 17.312 82.8692 17.366 83.2892 17.366C83.9012 17.366 84.4052 17.252 84.8012 17.024C85.1972 16.784 85.3952 16.436 85.3952 15.98C85.3952 15.68 85.3112 15.44 85.1432 15.26C84.9872 15.08 84.6992 14.918 84.2792 14.774C83.8712 14.63 83.3072 14.48 82.5872 14.324C81.8672 14.156 81.2972 13.952 80.8772 13.712C80.4572 13.46 80.1572 13.166 79.9772 12.83C79.7972 12.482 79.7072 12.092 79.7072 11.66C79.7072 11.216 79.8392 10.79 80.1032 10.382C80.3672 9.962 80.7512 9.62 81.2552 9.356C81.7712 9.092 82.4132 8.96 83.1812 8.96C83.8052 8.96 84.3392 9.038 84.7832 9.194C85.2272 9.35 85.5932 9.548 85.8812 9.788C86.1692 10.016 86.3852 10.244 86.5292 10.472C86.6732 10.7 86.7512 10.892 86.7632 11.048C86.7752 11.168 86.7392 11.27 86.6552 11.354C86.5712 11.426 86.4752 11.462 86.3672 11.462H85.6112C85.5272 11.462 85.4552 11.444 85.3952 11.408C85.3472 11.372 85.2992 11.33 85.2512 11.282C85.1312 11.126 84.9872 10.97 84.8192 10.814C84.6632 10.658 84.4532 10.532 84.1892 10.436C83.9372 10.328 83.6012 10.274 83.1812 10.274C82.5812 10.274 82.1312 10.4 81.8312 10.652C81.5312 10.904 81.3812 11.222 81.3812 11.606C81.3812 11.834 81.4472 12.038 81.5792 12.218C81.7112 12.398 81.9632 12.56 82.3352 12.704C82.7072 12.848 83.2592 13.004 83.9912 13.172C84.7832 13.328 85.4072 13.538 85.8632 13.802C86.3192 14.066 86.6432 14.372 86.8352 14.72C87.0272 15.068 87.1232 15.47 87.1232 15.926C87.1232 16.43 86.9732 16.892 86.6732 17.312C86.3852 17.732 85.9532 18.068 85.3772 18.32C84.8132 18.56 84.1112 18.68 83.2712 18.68Z" fill="#151515"/>
<path d="M92.843 18.5C92.651 18.5 92.495 18.452 92.375 18.356C92.267 18.248 92.189 18.122 92.141 17.978L88.361 6.44C88.349 6.38 88.343 6.326 88.343 6.278C88.343 6.182 88.379 6.098 88.451 6.026C88.523 5.942 88.613 5.9 88.721 5.9H90.611C90.791 5.9 90.929 5.954 91.025 6.062C91.133 6.158 91.199 6.248 91.223 6.332L94.031 15.134L96.821 6.332C96.857 6.248 96.923 6.158 97.019 6.062C97.115 5.954 97.253 5.9 97.433 5.9H99.323C99.431 5.9 99.521 5.942 99.593 6.026C99.665 6.098 99.701 6.182 99.701 6.278C99.701 6.326 99.695 6.38 99.683 6.44L95.903 17.978C95.867 18.122 95.789 18.248 95.669 18.356C95.561 18.452 95.405 18.5 95.201 18.5H92.843ZM101.944 18.5C101.812 18.5 101.704 18.458 101.62 18.374C101.536 18.29 101.494 18.182 101.494 18.05V6.35C101.494 6.218 101.536 6.11 101.62 6.026C101.704 5.942 101.812 5.9 101.944 5.9H106.858C107.83 5.9 108.67 6.05 109.378 6.35C110.098 6.65 110.656 7.106 111.052 7.718C111.46 8.318 111.664 9.068 111.664 9.968C111.664 10.88 111.46 11.636 111.052 12.236C110.656 12.824 110.098 13.262 109.378 13.55C108.67 13.838 107.83 13.982 106.858 13.982H104.446V18.05C104.446 18.182 104.404 18.29 104.32 18.374C104.236 18.458 104.128 18.5 103.996 18.5H101.944ZM104.392 11.75H106.768C107.38 11.75 107.854 11.6 108.19 11.3C108.538 11 108.712 10.55 108.712 9.95C108.712 9.422 108.556 8.99 108.244 8.654C107.944 8.318 107.452 8.15 106.768 8.15H104.392V11.75ZM113.95 18.5C113.818 18.5 113.71 18.458 113.626 18.374C113.542 18.29 113.5 18.182 113.5 18.05V6.35C113.5 6.218 113.542 6.11 113.626 6.026C113.71 5.942 113.818 5.9 113.95 5.9H115.588C115.768 5.9 115.9 5.942 115.984 6.026C116.068 6.11 116.122 6.176 116.146 6.224L120.952 13.73V6.35C120.952 6.218 120.994 6.11 121.078 6.026C121.162 5.942 121.264 5.9 121.384 5.9H123.22C123.352 5.9 123.46 5.942 123.544 6.026C123.628 6.11 123.67 6.218 123.67 6.35V18.05C123.67 18.17 123.628 18.278 123.544 18.374C123.46 18.458 123.352 18.5 123.22 18.5H121.564C121.384 18.5 121.252 18.458 121.168 18.374C121.096 18.278 121.042 18.212 121.006 18.176L116.218 10.904V18.05C116.218 18.182 116.176 18.29 116.092 18.374C116.008 18.458 115.9 18.5 115.768 18.5H113.95Z" fill="#101010"/>
</svg>
